#Comment line ignore any data following # character 
#Hierarchical Translation and Rotation (.htr) file 
[Header]	
#Header keywords are followed by a single value 
FileType HTR		#Single word string
DataType HTRS		#Translation followed by rotation and scale data
FileVersion 1		#integer
NumSegments 23		#integer
NumFrames 6		#integer
DataFrameRate 30		#integer, data frame rate in this file
EulerRotationOrder ZYX
CalibrationUnits mm
RotationUnits Degrees
GlobalAxisofGravity Y
BoneLengthAxis Y
ScaleFactor 1.00
[SegmentNames&Hierarchy]
#CHILD	PARENT
MASTER GLOBAL
weapon MASTER
arm_lock_bottom_part1 weapon
arm_lock_bottom_part2 weapon
arm_lock_bottom_part3 weapon
arm_lock_bottom_part4 weapon
arm_lock_top_part1 weapon
arm_lock_top_part2 weapon
arm_lock_top_part3 weapon
front_lower_left_part1 weapon
front_lower_right_part1 weapon
front_top_left_part weapon
front_top_right_part1 weapon
scope_part1 weapon
scope_part2 weapon
front_lower_left_part2 front_lower_left_part1
front_lower_left_part3 front_lower_left_part2
front_lower_right_part2 front_lower_right_part1
front_lower_right_part3 front_lower_right_part2
front_top_left_part2 front_top_left_part
front_top_left_part3 front_top_left_part2
front_top_right_part2 front_top_right_part1
front_top_right_part3 front_top_right_part2
[BasePosition]
#SegmentName Tx, Ty, Tz, Rx, Ry, Rz, BoneLength
MASTER 0.000000 0.000000 0.000000 -90.000000 0.000000 0.000000 10.000000 
weapon 0.000000 0.000000 0.000000 0.000000 0.000000 0.000000 10.000000 
arm_lock_bottom_part1 0.000000 0.000000 0.000000 0.000000 0.000000 0.000000 10.000000 
arm_lock_bottom_part2 0.000000 0.000000 0.000000 0.000000 0.000000 0.000000 10.000000 
arm_lock_bottom_part3 0.000000 0.000000 0.000000 0.000000 0.000000 0.000000 10.000000 
arm_lock_bottom_part4 0.000000 0.000000 0.000000 0.000000 0.000000 0.000000 10.000000 
arm_lock_top_part1 0.000000 0.000000 0.000000 0.000000 0.000000 0.000000 10.000000 
arm_lock_top_part2 0.000000 0.000000 0.000000 0.000000 0.000000 0.000000 10.000000 
arm_lock_top_part3 0.000000 0.000000 0.000000 0.000000 0.000000 0.000000 10.000000 
front_lower_left_part1 0.000000 0.000000 0.000000 0.000000 0.000000 0.000000 10.000000 
front_lower_right_part1 0.000000 0.000000 0.000000 0.000000 0.000000 0.000000 10.000000 
front_top_left_part 0.000000 0.000000 0.000000 0.000000 0.000000 0.000000 10.000000 
front_top_right_part1 0.000000 0.000000 0.000000 0.000000 0.000000 0.000000 10.000000 
scope_part1 0.000000 0.000000 0.000000 0.000000 0.000000 0.000000 10.000000 
scope_part2 0.000000 0.000000 0.000000 0.000000 0.000000 0.000000 10.000000 
front_lower_left_part2 0.000000 0.000000 0.000000 0.000000 0.000000 0.000000 10.000000 
front_lower_left_part3 0.000000 0.000000 0.000000 0.000000 0.000000 0.000000 10.000000 
front_lower_right_part2 0.000000 0.000000 0.000000 0.000000 0.000000 0.000000 10.000000 
front_lower_right_part3 0.000000 0.000000 0.000000 0.000000 0.000000 0.000000 10.000000 
front_top_left_part2 0.000000 0.000000 0.000000 0.000000 0.000000 0.000000 10.000000 
front_top_left_part3 0.000000 0.000000 0.000000 0.000000 0.000000 0.000000 10.000000 
front_top_right_part2 0.000000 0.000000 0.000000 0.000000 0.000000 0.000000 10.000000 
front_top_right_part3 0.000000 0.000000 0.000000 0.000000 0.000000 0.000000 10.000000 
#Beginning of Data. Separated by tabs
#Fr	Tx	Ty	Tz	Rx	Ry	Rz	SF
[MASTER]
36 0.000000 -0.000019 0.000002 0.002458 -0.000000 0.000000 0.000019
37 0.000000 -0.000019 0.000002 0.002458 -0.000000 0.000000 0.000019
38 0.000000 -0.000019 0.000002 0.002458 -0.000000 0.000000 0.000019
39 0.000000 -0.000019 0.000002 0.002458 -0.000000 0.000000 0.000019
40 0.000000 -0.000019 0.000002 0.002458 -0.000000 0.000000 0.000019
41 0.000000 -0.000019 0.000002 0.002458 -0.000000 0.000000 0.000019
[weapon]
36 10.182457 -168.977844 -13.084106 -0.002473 -0.000000 -0.000020 169.789246
37 10.182476 -168.977844 -13.084106 -0.002473 -0.000000 -0.000020 169.789246
38 10.182457 -168.977844 -13.084106 -0.002473 -0.000000 -0.000020 169.789246
39 10.182457 -168.977844 -13.084106 -0.002473 -0.000000 -0.000020 169.789246
40 10.182457 -168.977844 -13.084106 -0.002473 -0.000000 -0.000020 169.789246
41 10.182476 -168.977844 -13.084106 -0.002473 -0.000000 -0.000020 169.789246
[arm_lock_bottom_part1]
36 -48.820000 98.566208 -83.498993 179.999985 0.000004 9.388626 138.096970
37 -48.820000 98.566170 -83.498993 179.999985 0.000004 9.388626 138.096939
38 -48.820000 98.566208 -83.498993 179.999985 0.000004 9.388626 138.096970
39 -48.820019 98.566170 -83.498993 179.999985 0.000004 9.388626 138.096939
40 -48.820000 98.566208 -83.498993 179.999985 0.000004 9.388626 138.096970
41 -48.820000 98.566170 -83.498993 179.999985 0.000004 9.388626 138.096939
[arm_lock_bottom_part2]
36 -49.022766 58.782005 -78.526535 -179.999985 -0.000001 6.576765 109.658440
37 -49.022751 58.781967 -78.526535 -179.999985 -0.000001 6.576765 109.658409
38 -49.022766 58.782005 -78.526535 -179.999985 -0.000001 6.576765 109.658440
39 -49.022766 58.781967 -78.526535 -179.999985 -0.000001 6.576765 109.658417
40 -49.022766 58.782005 -78.526535 -179.999985 -0.000001 6.576765 109.658440
41 -49.022766 58.781967 -78.526535 -179.999985 -0.000001 6.576765 109.658417
[arm_lock_bottom_part3]
36 -51.266422 -16.798210 -66.920395 -179.999985 -0.000001 4.326176 85.957924
37 -51.266422 -16.798286 -66.920395 -179.999985 -0.000001 4.326176 85.957939
38 -51.266422 -16.798210 -66.920395 -179.999985 -0.000001 4.326176 85.957924
39 -51.266422 -16.798248 -66.920395 -179.999985 -0.000001 4.326176 85.957932
40 -51.266422 -16.798210 -66.920395 -179.999985 -0.000001 4.326176 85.957924
41 -51.266422 -16.798248 -66.920395 -179.999985 -0.000001 4.326176 85.957932
[arm_lock_bottom_part4]
36 -40.078102 -93.503113 -59.330063 -179.999985 -0.000000 1.322129 117.767326
37 -40.078068 -93.503136 -59.330063 -179.999985 -0.000000 1.322129 117.767326
38 -40.078102 -93.503113 -59.330063 -179.999985 -0.000000 1.322129 117.767326
39 -40.078102 -93.503136 -59.330063 -179.999985 -0.000000 1.322129 117.767334
40 -40.078102 -93.503113 -59.330063 -179.999985 -0.000000 1.322129 117.767326
41 -40.078083 -93.503136 -59.330063 -179.999985 -0.000000 1.322129 117.767326
[arm_lock_top_part1]
36 -47.532558 61.554489 78.379364 0.000000 -0.000000 -9.999999 110.415680
37 -47.532539 61.554451 78.379364 0.000000 -0.000000 -9.999999 110.415665
38 -47.532558 61.554489 78.379364 0.000000 -0.000000 -9.999999 110.415680
39 -47.532558 61.554451 78.379364 0.000000 -0.000000 -9.999999 110.415672
40 -47.532558 61.554489 78.379364 0.000000 -0.000000 -9.999999 110.415680
41 -47.532558 61.554451 78.379364 0.000000 -0.000000 -9.999999 110.415672
[arm_lock_top_part2]
36 -45.622673 13.709908 63.393555 0.000000 -0.000000 -7.722126 79.297745
37 -45.622673 13.709869 63.393555 0.000000 -0.000000 -7.722126 79.297745
38 -45.622673 13.709908 63.393555 0.000000 -0.000000 -7.722126 79.297745
39 -45.622692 13.709869 63.393555 0.000000 -0.000000 -7.722126 79.297752
40 -45.622673 13.709908 63.393555 0.000000 -0.000000 -7.722126 79.297745
41 -45.622673 13.709869 63.393555 0.000000 -0.000000 -7.722126 79.297745
[arm_lock_top_part3]
36 -43.788544 -73.747208 72.061615 0.000000 0.000000 -4.533067 112.022163
37 -43.788509 -73.747231 72.061615 0.000000 0.000000 -4.533067 112.022163
38 -43.788544 -73.747208 72.061615 0.000000 0.000000 -4.533067 112.022163
39 -43.788544 -73.747231 72.061615 0.000000 0.000000 -4.533067 112.022171
40 -43.788544 -73.747208 72.061615 0.000000 0.000000 -4.533067 112.022163
41 -43.788525 -73.747253 72.061615 0.000000 0.000000 -4.533067 112.022179
[front_lower_left_part1]
36 -46.798553 475.070984 -43.538895 0.000000 0.000003 -0.000000 479.351837
37 -46.798553 475.070984 -43.538815 0.000000 0.000003 -0.000000 479.351807
38 -46.798553 475.070984 -43.538895 0.000000 0.000003 -0.000000 479.351837
39 -46.798534 475.070862 -43.538895 0.000000 0.000003 -0.000000 479.351715
40 -46.798553 475.070984 -43.538895 0.000000 0.000003 -0.000000 479.351837
41 -46.798553 475.070953 -43.538895 0.000000 0.000003 -0.000000 479.351807
[front_lower_right_part1]
36 26.433468 475.070984 -43.538742 0.000000 -0.000000 -0.000000 477.793671
37 26.433447 475.070984 -43.538895 0.000000 -0.000000 -0.000000 477.793671
38 26.433468 475.070984 -43.538742 0.000000 -0.000000 -0.000000 477.793671
39 26.433468 475.070953 -43.538742 0.000000 -0.000000 -0.000000 477.793640
40 26.433468 475.070984 -43.538742 0.000000 -0.000000 -0.000000 477.793671
41 26.433447 475.070953 -43.538895 0.000000 -0.000000 -0.000000 477.793640
[front_top_left_part]
36 -47.897224 494.788910 7.030945 -0.000000 0.000003 -0.000001 497.151520
37 -47.897205 494.788849 7.030945 -0.000000 0.000003 -0.000001 497.151459
38 -47.897224 494.788910 7.030945 -0.000000 0.000003 -0.000001 497.151520
39 -47.897205 494.788879 7.030945 -0.000000 0.000003 -0.000001 497.151489
40 -47.897224 494.788910 7.030945 -0.000000 0.000003 -0.000001 497.151520
41 -47.897224 494.788879 7.030945 -0.000000 0.000003 -0.000001 497.151489
[front_top_right_part1]
36 27.532139 494.788910 7.031097 0.000000 -0.000000 -0.000000 495.604218
37 27.532156 494.788910 7.031097 0.000000 -0.000000 -0.000000 495.604218
38 27.532139 494.788910 7.031097 0.000000 -0.000000 -0.000000 495.604218
39 27.532139 494.788879 7.031097 0.000000 -0.000000 -0.000000 495.604187
40 27.532139 494.788910 7.031097 0.000000 -0.000000 -0.000000 495.604218
41 27.532156 494.788879 7.031097 0.000000 -0.000000 -0.000000 495.604187
[scope_part1]
36 -10.754299 87.338936 156.453094 -4.906119 -1.488924 0.127815 179.502960
37 -10.754318 87.338905 156.453094 -4.906138 -1.495588 0.128412 179.502960
38 -10.754299 87.338936 156.453094 -4.906136 -1.494121 0.128349 179.502960
39 -10.754318 87.338974 156.453094 -4.906121 -1.489582 0.127846 179.502975
40 -10.754299 87.338936 156.453094 -4.906100 -1.482259 0.127218 179.502960
41 -10.754318 87.338905 156.453094 -4.906073 -1.472241 0.126323 179.502960
[scope_part2]
36 -10.754299 82.597351 156.859894 -4.905927 1.386771 -0.118994 177.603500
37 -10.754280 82.597305 156.859894 -4.905934 1.389931 -0.119280 177.603470
38 -10.754299 82.597351 156.859894 -4.905930 1.388470 -0.119067 177.603500
39 -10.754299 82.597305 156.859894 -4.905919 1.384307 -0.118731 177.603470
40 -10.754299 82.597351 156.859894 -4.905901 1.377530 -0.118133 177.603500
41 -10.754280 82.597305 156.859894 -4.905879 1.368200 -0.117425 177.603470
[front_lower_left_part2]
36 -55.193516 141.618484 32.268444 0.000000 -0.000000 2.323482 155.381378
37 -55.193516 141.618484 32.268291 0.000000 -0.000000 2.407887 155.381348
38 -55.193516 141.618484 32.268444 0.000000 -0.000000 2.489507 155.381378
39 -55.193516 141.618484 32.268444 0.000000 -0.000000 2.571126 155.381378
40 -55.193516 141.618484 32.268444 0.000000 -0.000000 2.649353 155.381378
41 -55.193501 141.618484 32.268444 0.000000 -0.000000 2.725100 155.381378
[front_lower_left_part3]
36 -10.943755 108.509445 -11.124725 33.941708 -14.586609 -15.703351 109.625839
37 -10.943775 108.509445 -11.124877 33.957535 -14.545751 -15.766018 109.625854
38 -10.943775 108.509445 -11.124877 33.972218 -14.507452 -15.824732 109.625854
39 -10.943793 108.509445 -11.124877 33.985928 -14.471813 -15.879393 109.625854
40 -10.943755 108.509445 -11.125030 33.998390 -14.439076 -15.929535 109.625870
41 -10.943793 108.509445 -11.125030 34.009663 -14.409408 -15.974893 109.625870
[front_lower_right_part2]
36 55.193707 141.618347 32.268291 0.000000 0.000000 -1.105381 155.381271
37 55.193707 141.618408 32.268291 0.000000 0.000000 -1.145565 155.381348
38 55.193707 141.618347 32.268291 0.000000 0.000000 -1.184977 155.381271
39 55.193707 141.618347 32.268291 0.000000 0.000000 -1.223310 155.381271
40 55.193707 141.618347 32.268291 0.000000 0.000000 -1.260557 155.381271
41 55.193707 141.618347 32.268291 0.000000 0.000000 -1.296568 155.381271
[front_lower_right_part3]
36 10.943909 108.509369 -11.124877 33.669727 15.269691 14.647494 109.625793
37 10.943909 108.509445 -11.124877 33.676624 15.252930 14.673577 109.625870
38 10.943870 108.509285 -11.124877 33.682755 15.238072 14.696701 109.625710
39 10.943909 108.509445 -11.124877 33.688061 15.225078 14.717012 109.625870
40 10.943909 108.509369 -11.124877 33.692474 15.214148 14.733900 109.625793
41 10.943909 108.509445 -11.124877 33.696026 15.205483 14.747436 109.625870
[front_top_left_part2]
36 -38.971920 137.495575 54.641571 0.000000 -0.000003 0.000001 153.001785
37 -38.880501 137.495804 54.636536 0.000000 -0.000003 0.000001 152.976929
38 -38.796444 137.495956 54.631954 0.000000 -0.000003 0.000001 152.954086
39 -38.720242 137.496094 54.627834 0.000000 -0.000003 0.000001 152.933426
40 -38.652439 137.496262 54.624020 0.000000 -0.000003 0.000001 152.915070
41 -38.593597 137.496414 54.620819 0.000000 -0.000003 0.000001 152.899200
[front_top_left_part3]
36 -28.216457 149.657059 49.959717 -25.947208 -3.109392 -64.897545 160.279053
37 -28.216438 149.656906 49.959717 -25.947433 -3.107578 -64.893814 160.278915
38 -28.216476 149.656982 49.959717 -25.947315 -3.108396 -64.895523 160.278992
39 -28.216438 149.656982 49.959717 -25.947021 -3.110828 -64.900429 160.278976
40 -28.216438 149.656982 49.959717 -25.946587 -3.114673 -64.908424 160.278976
41 -28.216457 149.656906 49.959717 -25.946026 -3.120039 -64.919479 160.278915
[front_top_right_part2]
36 38.724819 137.479782 55.050507 0.000000 0.000000 -0.000020 153.071426
37 38.627167 137.479630 55.056000 0.000000 0.000000 -0.000020 153.048584
38 38.537289 137.479401 55.060883 0.000000 0.000000 -0.000020 153.027481
39 38.455811 137.479248 55.065308 0.000000 0.000000 -0.000020 153.008438
40 38.383404 137.479095 55.069275 0.000000 0.000000 -0.000020 152.991547
41 38.320461 137.478928 55.072784 0.000000 0.000000 -0.000020 152.976883
[front_top_right_part3]
36 28.216515 149.657135 49.959717 -25.908775 3.436533 65.571426 160.279129
37 28.216515 149.657135 49.959564 -25.908934 3.435431 65.569214 160.279083
38 28.216515 149.657135 49.959564 -25.908844 3.435905 65.570229 160.279083
39 28.216515 149.657059 49.959717 -25.908642 3.437345 65.573128 160.279068
40 28.216515 149.657059 49.959717 -25.908363 3.439529 65.577744 160.279068
41 28.216515 149.657059 49.959564 -25.907974 3.442675 65.584244 160.279022
